# xmcd CD database file
#
# Track frame offsets:
#	150
#	14892
#	27266
#	37618
#	52033
#	65412
#	76935
#	88298
#	103555
#	115610
#
# Disc length: 1712 seconds
#
# Revision: 0
# Processed by: cddbd v1.5.2PL0 Copyright (c) Steve Scherf et al.
# Submitted via: CDex 1.70beta2
#
DISCID=7806ae0a
DTITLE=Phair, Jimmy - Cdn. - ON - Courtright - Good and Country
DYEAR=1900
DGENRE=Country
TTITLE0=Daddy Frank
TTITLE1=These Days I Barely Get By
TTITLE2=I Don't Need A Thing At All
TTITLE3=Ride Me Down Easy
TTITLE4=Will You Be Satisfied That Way
TTITLE5=I Don't Want To Cry
TTITLE6=Leaving and Saying Goodbye
TTITLE7=For A Minute There
TTITLE8=Just the Same Old Story
TTITLE9=Mamas Don't Let Your Babies Grow Up To Be Cowboys
EXTD=
EXTT0=
EXTT1=
EXTT2=
EXTT3=
EXTT4=
EXTT5=
EXTT6=
EXTT7=
EXTT8=
EXTT9=
PLAYORDER=
